<?xml version="1.0" standalone="no"?>
<!DOCTYPE svg PUBLIC "-//W3C//DTD SVG 20010904//EN"
 "http://www.w3.org/TR/2001/REC-SVG-20010904/DTD/svg10.dtd">
<svg version="1.0" xmlns="http://www.w3.org/2000/svg"
 width="700.000000pt" height="700.000000pt" viewBox="0 0 700.000000 700.000000"
 preserveAspectRatio="xMidYMid meet">
<metadata>
Created by potrace 1.11, written by Peter Selinger 2001-2013
</metadata>
<g transform="translate(0.000000,700.000000) scale(0.100000,-0.100000)"
fill="#000000" stroke="none">
<path d="M0 3500 l0 -3500 3500 0 3500 0 0 3500 0 3500 -3500 0 -3500 0 0
-3500z m3091 1380 c168 -32 312 -86 452 -168 l77 -46 0 -178 c0 -98 -2 -178
-5 -178 -3 0 -34 24 -69 53 -144 118 -316 200 -497 238 -137 28 -379 23 -504
-10 -321 -86 -523 -323 -595 -701 -34 -176 -30 -481 9 -659 105 -478 453 -724
964 -680 146 12 262 44 393 109 95 46 241 145 273 183 7 9 17 17 22 17 5 0 9
-80 9 -177 l0 -178 -63 -37 c-152 -89 -291 -143 -460 -180 -136 -29 -435 -32
-571 -5 -394 79 -669 287 -830 628 -83 174 -123 355 -133 599 -14 332 53 628
194 862 101 169 292 338 478 424 93 43 270 89 392 103 125 14 340 5 464 -19z
m1979 -635 c52 -8 139 -29 193 -46 l97 -30 0 -148 0 -149 -79 35 c-164 70
-398 111 -566 98 -185 -15 -304 -64 -359 -148 -47 -73 -48 -188 -2 -257 48
-73 142 -112 431 -180 305 -72 444 -130 545 -230 91 -89 130 -192 130 -345 0
-163 -42 -267 -150 -375 -165 -165 -459 -237 -808 -199 -124 13 -313 51 -419
84 l-83 26 0 159 c0 88 2 160 4 160 2 0 41 -17 87 -39 232 -106 485 -154 694
-130 220 24 337 108 352 252 14 133 -47 227 -182 280 -38 15 -155 48 -260 73
-254 61 -316 80 -409 127 -137 67 -225 174 -256 306 -20 85 -15 234 9 312 26
81 84 173 142 223 87 74 238 134 392 156 89 13 386 4 497 -15z"/>
</g>
</svg>
